HIERARCHY
ROOT Hips
{
	OFFSET 0.000000 0.000000 0.000000
	CHANNELS 6 Xposition Yposition Zposition Zrotation Yrotation Xrotation 
	JOINT LHipJoint
	{
		OFFSET 0.000000 0.000000 0.000000
		CHANNELS 3 Zrotation Yrotation Xrotation
		JOINT LeftUpLeg
		{
			OFFSET 1.363060 -1.794630 0.839290
			CHANNELS 3 Zrotation Yrotation Xrotation
			JOINT LeftLeg
			{
				OFFSET 2.448110 -6.726130 0.000000
				CHANNELS 3 Zrotation Yrotation Xrotation
				JOINT LeftFoot
				{
					OFFSET 2.562200 -7.039590 0.000000
					CHANNELS 3 Zrotation Yrotation Xrotation
					JOINT LeftToeBase
					{
						OFFSET 0.157640 -0.433110 2.322550
						CHANNELS 3 Zrotation Yrotation Xrotation
						End Site
						{
							OFFSET 0.000000 0.000000 0.000000
						}
					}
				}
			}
		}
	}
	JOINT RHipJoint
	{
		OFFSET 0.000000 0.000000 0.000000
		CHANNELS 3 Zrotation Yrotation Xrotation
		JOINT RightUpLeg
		{
			OFFSET -1.305520 -1.794630 0.839290
			CHANNELS 3 Zrotation Yrotation Xrotation
			JOINT RightLeg
			{
				OFFSET -2.542530 -6.985550 0.000000
				CHANNELS 3 Zrotation Yrotation Xrotation
				JOINT RightFoot
				{
					OFFSET -2.568260 -7.056230 0.000000
					CHANNELS 3 Zrotation Yrotation Xrotation
					JOINT RightToeBase
					{
						OFFSET -0.164730 -0.452590 2.363150
						CHANNELS 3 Zrotation Yrotation Xrotation
						End Site
						{
							OFFSET 0.000000 0.000000 0.000000
						}
					}
				}
			}
		}
	}
	JOINT LowerBack
	{
		OFFSET 0.000000 0.000000 0.000000
		CHANNELS 3 Zrotation Yrotation Xrotation
		JOINT Spine
		{
			OFFSET 0.028270 2.035590 -0.193380
			CHANNELS 3 Zrotation Yrotation Xrotation
			JOINT Spine1
			{
				OFFSET 0.056720 2.048850 -0.042750
				CHANNELS 3 Zrotation Yrotation Xrotation
				JOINT Neck
				{
					OFFSET 0.000000 0.000000 0.000000
					CHANNELS 3 Zrotation Yrotation Xrotation
					JOINT Neck1
					{
						OFFSET -0.054170 1.746240 0.172020
						CHANNELS 3 Zrotation Yrotation Xrotation
						JOINT Head
						{
							OFFSET 0.104070 1.761360 -0.123970
							CHANNELS 3 Zrotation Yrotation Xrotation
							End Site
							{
								OFFSET 0.000000 0.000000 0.000000
							}
						}
					}
				}
				JOINT LeftShoulder
				{
					OFFSET 0.000000 0.000000 0.000000
					CHANNELS 3 Zrotation Yrotation Xrotation
					JOINT LeftArm
					{
						OFFSET 3.362410 1.200890 -0.311210
						CHANNELS 3 Zrotation Yrotation Xrotation
						JOINT LeftForeArm
						{
							OFFSET 4.983000 -0.000000 -0.000000
							CHANNELS 3 Zrotation Yrotation Xrotation
							JOINT LeftHand
							{
								OFFSET 3.483560 -0.000000 -0.000000
								CHANNELS 3 Zrotation Yrotation Xrotation
								JOINT LeftFingerBase
								{
									OFFSET 0.000000 0.000000 0.000000
									CHANNELS 3 Zrotation Yrotation Xrotation
									JOINT LeftHandIndex1
									{
										OFFSET 0.715260 -0.000000 -0.000000
										CHANNELS 3 Zrotation Yrotation Xrotation
										End Site
										{
											OFFSET 0.000000 0.000000 0.000000
										}
									}
								}
								JOINT LThumb
								{
									OFFSET 0.000000 0.000000 0.000000
									CHANNELS 3 Zrotation Yrotation Xrotation
									End Site
									{
										OFFSET 0.000000 0.000000 0.000000
									}
								}
							}
						}
					}
				}
				JOINT RightShoulder
				{
					OFFSET 0.000000 0.000000 0.000000
					CHANNELS 3 Zrotation Yrotation Xrotation
					JOINT RightArm
					{
						OFFSET -3.136600 1.374050 -0.404650
						CHANNELS 3 Zrotation Yrotation Xrotation
						JOINT RightForeArm
						{
							OFFSET -5.241900 -0.000000 -0.000000
							CHANNELS 3 Zrotation Yrotation Xrotation
							JOINT RightHand
							{
								OFFSET -3.444170 -0.000000 -0.000000
								CHANNELS 3 Zrotation Yrotation Xrotation
								JOINT RightFingerBase
								{
									OFFSET 0.000000 0.000000 0.000000
									CHANNELS 3 Zrotation Yrotation Xrotation
									JOINT RightHandIndex1
									{
										OFFSET -0.622530 -0.000000 -0.000000
										CHANNELS 3 Zrotation Yrotation Xrotation
										End Site
										{
											OFFSET 0.000000 0.000000 0.000000
										}
									}
								}
								JOINT RThumb
								{
									OFFSET 0.000000 0.000000 0.000000
									CHANNELS 3 Zrotation Yrotation Xrotation
									End Site
									{
										OFFSET 0.000000 0.000000 0.000000
									}
								}
							}
						}
					}
				}
			}
		}
	}
}
MOTION
Frames: 12
Frame Time: 0.008333
2.184384 17.048979 41.456886 -176.355826 5.226428 -152.186949 -4.708829 -7.079245 -7.505554 -8.705208 0.686028 -53.834743 5.927958 17.526299 48.653464 6.751989 -13.724290 10.712369 0.938700 6.171100 17.281600 8.961518 1.153569 5.665769 10.267520 -3.704092 -12.289860 -7.440988 -14.314436 40.827736 1.599872 -26.579620 41.696151 -0.417900 4.149300 -11.497000 0.276299 3.778394 21.624718 -0.429721 4.774274 -4.068984 -2.180625 2.762657 -8.370977 -3.913977 -3.946114 -12.613807 6.801193 -5.857718 -6.484645 2.764200 -3.180300 0.231900 3.745720 -3.574797 0.427091 -76.525382 28.251832 40.251255 97.596490 -60.271690 -73.043011 -0.464714 -0.759273 -14.135618 21.389627 -9.151149 -3.402200 -7.125000 0.000000 0.000000 -3.497600 20.883700 2.024700 -5.853724 4.368125 0.150778 83.092571 -4.947037 35.489972 -85.447569 58.030261 -64.770596 1.550890 0.782405 -12.260157 -20.950626 4.862422 -1.816100 7.125000 0.000000 0.000000 3.019100 -25.255700 1.444300 
2.206993 17.015718 40.933181 -177.285482 4.574389 -152.490555 -5.175947 -7.080795 -6.993487 -9.783891 0.291116 -52.194595 6.077184 17.439417 48.993779 6.988060 -13.972157 8.923011 1.410000 7.510600 21.237200 8.555965 1.569731 4.979587 10.199514 -4.261223 -14.354458 -8.647101 -15.156103 45.250662 1.950687 -24.772948 39.534668 -0.551900 4.759100 -13.222600 -0.272352 3.371120 21.916126 -0.494097 4.120013 -4.092704 -2.131919 2.435587 -8.592956 -3.704220 -3.900425 -12.752604 6.962914 -5.848198 -6.614749 2.778300 -3.190800 0.233100 3.638267 -3.704603 0.444754 -77.336487 26.024260 40.603916 94.449329 -60.030444 -70.553895 -0.526868 -0.784964 -15.255747 21.523322 -9.602223 -3.619100 -7.125000 0.000000 0.000000 -3.353600 20.387800 1.978500 -5.808619 4.466337 0.025196 84.980764 -6.116608 35.812157 -78.407830 56.938506 -58.414738 1.572828 0.807938 -12.277466 -21.063986 4.750605 -1.773000 7.125000 0.000000 0.000000 2.913600 -25.394800 1.384300 
2.229168 16.981478 40.409586 -178.615509 3.747488 -153.010140 -5.684781 -7.020004 -6.454060 -10.920690 -0.586018 -50.412976 6.364034 17.432384 49.682606 7.051588 -13.708912 6.755447 1.407300 7.503500 21.216000 8.109909 1.907041 4.324491 9.800307 -4.865525 -16.421335 -9.930994 -15.978639 49.950371 2.384945 -22.974675 36.777281 -0.682300 5.281400 -14.713000 -1.082664 2.824493 22.511260 -0.553086 3.228902 -4.103351 -1.937553 2.014974 -8.886184 -3.516385 -3.788392 -12.940976 7.097377 -5.764632 -6.771984 2.766900 -3.174400 0.235900 3.526664 -3.846250 0.458829 -78.129156 23.722761 40.922014 91.570883 -59.688286 -68.208793 -0.583295 -0.815416 -15.672352 21.847225 -9.415432 -3.607100 -7.125000 0.000000 0.000000 -3.067400 20.576600 1.796200 -5.745344 4.577483 -0.103022 86.789199 -7.243944 35.726180 -71.432402 55.536600 -51.820682 1.621984 0.759792 -12.012775 -21.491683 5.101909 -1.982700 7.125000 0.000000 0.000000 2.565400 -24.949100 1.245100 
2.252429 16.930282 39.896751 179.903476 2.901931 -153.495239 -6.181845 -6.920049 -5.937825 -11.982294 -1.771286 -48.593033 6.597640 17.401537 50.303905 7.122660 -13.651426 5.040699 1.408600 7.507000 21.226300 7.648084 2.200095 3.671712 9.118551 -5.686369 -18.751710 -11.239487 -16.727185 54.549504 2.617621 -21.283174 34.372246 -0.779200 5.635700 -15.731100 -1.976144 2.565465 23.098707 -0.590250 2.190729 -4.096369 -1.507527 1.321818 -9.124861 -3.511690 -3.679933 -13.003897 7.269420 -5.684062 -7.050390 2.814100 -3.163300 0.127000 3.418121 -3.972176 0.473267 -78.964905 21.276180 41.264080 88.826840 -59.274731 -65.885036 -0.638735 -0.821484 -15.656899 22.329317 -9.289361 -3.651000 -7.125000 0.000000 0.000000 -2.677300 20.670400 1.561600 -5.657484 4.680848 -0.208353 88.264604 -8.141387 35.242354 -64.531510 53.885245 -45.197081 1.680643 0.717549 -12.025534 -22.210449 5.277011 -2.155700 7.125000 0.000000 0.000000 1.991900 -24.674700 0.979000 
2.265907 16.920934 39.385003 179.006695 2.334758 -153.613425 -6.558301 -6.812500 -5.432106 -12.447258 -2.623285 -46.936510 6.765681 17.330226 50.651889 7.504708 -14.520017 3.723039 1.315200 7.263900 20.499500 7.172385 2.613432 2.839505 8.635127 -5.553330 -21.677009 -12.482668 -17.405864 59.026080 2.844931 -19.561892 31.700918 -0.941300 6.179400 -17.305900 -2.673061 2.144743 23.347681 -0.566384 1.543170 -4.121869 -0.815697 1.021097 -9.353730 -3.858037 -3.605360 -12.892801 7.449225 -5.618431 -7.458851 2.943100 -3.158100 -0.105800 3.379685 -4.097750 0.505484 -80.313799 18.499180 41.522110 87.803499 -58.926899 -64.855607 -0.678669 -0.762749 -15.062823 22.863455 -9.468651 -3.850300 -7.125000 0.000000 0.000000 -2.288200 20.374200 1.349500 -5.517484 4.739397 -0.294053 88.878532 -9.241668 34.323544 -58.076688 52.083945 -39.100212 1.778707 0.737707 -12.705648 -23.437193 5.110544 -2.221200 7.125000 0.000000 0.000000 0.992500 -24.783400 0.485100 
2.281560 16.868215 38.883147 178.114506 1.619149 -153.792315 -6.921424 -6.666740 -4.950803 -13.083550 -3.424025 -45.252024 6.954666 17.256186 51.030146 7.768941 -14.981610 2.259636 1.316600 7.267700 20.510800 6.710175 2.934384 2.136217 8.133756 -5.730618 -24.407636 -13.724751 -18.019989 63.500677 2.887856 -17.750747 29.196961 -1.079400 6.603800 -18.546700 -3.208631 1.681964 23.677004 -0.569834 0.837914 -4.146673 -0.350853 0.683496 -9.554380 -3.997314 -3.546423 -12.973112 7.622928 -5.577337 -7.715562 3.025000 -3.160400 -0.199200 3.318164 -4.200701 0.510335 -81.292855 15.880722 41.846847 86.661585 -58.590172 -63.774332 -0.710784 -0.729737 -15.063702 23.192667 -9.607191 -3.992400 -7.125000 0.000000 0.000000 -2.042100 20.154400 1.214200 -5.383591 4.788350 -0.367894 89.764517 -10.265026 33.011090 -52.240854 50.174138 -33.696439 1.848632 0.732596 -13.149221 -24.055539 4.999145 -2.252700 7.125000 0.000000 0.000000 0.475200 -24.839900 0.231600 
2.294603 16.813649 38.384334 177.405800 0.906332 -153.899984 -7.245553 -6.505663 -4.481252 -13.543866 -4.111049 -43.571334 7.104457 17.161521 51.270542 8.075751 -15.565607 0.983523 1.295800 7.212200 20.345700 6.251245 3.248092 1.433640 7.676961 -5.785076 -27.298730 -14.921395 -18.554502 67.789946 2.826602 -15.963666 26.817872 -1.214200 6.990100 -19.685900 -3.564113 1.226205 23.939125 -0.559170 0.200943 -4.178275 0.120759 0.375922 -9.727136 -4.182598 -3.511332 -13.096257 7.792658 -5.554709 -7.937894 3.113400 -3.168100 -0.262600 3.276859 -4.290554 0.516327 -82.312851 13.211518 42.127966 86.393608 -58.335228 -63.429701 -0.733513 -0.688832 -15.000849 23.475080 -9.756917 -4.133500 -7.125000 0.000000 0.000000 -1.839600 19.919700 1.103400 -5.232205 4.814007 -0.433887 90.389889 -11.320740 31.428942 -46.924865 48.130148 -28.940751 1.932304 0.748819 -13.711957 -24.632050 4.842130 -2.251300 7.125000 0.000000 0.000000 -0.026900 -24.962200 -0.013000 
2.305256 16.758105 37.886717 176.902745 0.213571 -153.931696 -7.527009 -6.333235 -4.019184 -13.828115 -4.635354 -41.922074 7.229779 17.056925 51.403883 8.434054 -16.289462 -0.158331 1.278900 7.166900 20.210700 5.795103 3.553189 0.733746 7.295850 -5.706089 -30.347235 -16.059181 -19.010374 71.833161 2.691030 -14.262555 24.599435 -1.341200 7.332500 -20.704400 -3.723819 0.784749 24.102236 -0.536720 -0.350355 -4.218492 0.569632 0.105662 -9.867686 -4.388142 -3.501687 -13.278520 7.946575 -5.552096 -8.104255 3.195200 -3.181300 -0.280200 3.259385 -4.365346 0.525919 -83.376918 10.520776 42.355706 87.097933 -58.175672 -63.928136 -0.746026 -0.643393 -14.885043 23.666749 -9.927720 -4.267600 -7.125000 0.000000 0.000000 -1.712100 19.666800 1.036500 -5.070310 4.813377 -0.497928 90.769311 -12.459053 29.677218 -42.213788 46.024282 -24.886982 2.026263 0.780736 -14.291635 -25.134733 4.675475 -2.230600 7.125000 0.000000 0.000000 -0.485700 -25.110600 -0.233700 
2.314060 16.703756 37.387144 176.585044 -0.465199 -153.913969 -7.783646 -6.149567 -3.554974 -13.947881 -4.979213 -40.262400 7.304510 16.927688 51.368463 8.824764 -17.084117 -1.136893 1.263200 7.124300 20.084100 5.347889 3.840231 0.047845 6.989308 -5.512452 -33.511690 -17.117242 -19.391168 75.566080 2.508488 -12.680339 22.549187 -1.458600 7.633300 -21.605800 -3.695511 0.354220 24.171362 -0.504917 -0.825750 -4.266312 0.973609 -0.132564 -9.978691 -4.579969 -3.507062 -13.522341 8.068208 -5.558333 -8.202748 3.252700 -3.195800 -0.246300 3.268759 -4.422161 0.542330 -84.479336 7.845992 42.527698 88.863661 -58.099178 -65.349851 -0.748421 -0.597814 -14.721464 23.765839 -10.056163 -4.362900 -7.125000 0.000000 0.000000 -1.656700 19.469900 1.010200 -4.909053 4.783815 -0.563437 90.938263 -13.743893 27.861386 -38.187390 43.976398 -21.561975 2.124780 0.815029 -14.709922 -25.552846 4.549028 -2.216800 7.125000 0.000000 0.000000 -0.884000 -25.225000 -0.423000 
2.321778 16.652668 36.882788 176.411297 -1.125265 -153.865326 -8.029084 -5.951836 -3.079842 -13.930358 -5.153293 -38.568815 7.309343 16.764217 51.130129 9.226871 -17.891925 -1.914670 1.249800 7.087800 19.975800 4.912077 4.099398 -0.614801 6.733114 -5.227023 -36.760464 -18.076177 -19.705169 78.924087 2.303773 -11.248076 20.677879 -1.568600 7.902800 -22.419200 -3.519056 -0.064314 24.153309 -0.465816 -1.238798 -4.321098 1.328248 -0.345126 -10.064564 -4.736101 -3.513841 -13.825718 8.144495 -5.559568 -8.234387 3.273200 -3.206700 -0.163700 3.306703 -4.458914 0.567879 -85.605206 5.223019 42.666582 91.712484 -58.054570 -67.694236 -0.741821 -0.551774 -14.548412 23.794823 -10.125127 -4.415700 -7.125000 0.000000 0.000000 -1.654900 19.345300 1.013700 -4.761532 4.724133 -0.632749 90.935219 -15.225281 26.095541 -34.888063 42.122200 -18.950277 2.222541 0.833604 -14.812008 -25.903871 4.543787 -2.260000 7.125000 0.000000 0.000000 -1.222800 -25.203500 -0.585800 
2.329169 16.607885 36.370497 176.337293 -1.769767 -153.805086 -8.280463 -5.733522 -2.583775 -13.792472 -5.199209 -36.799546 7.223183 16.555410 50.646952 9.630887 -18.686534 -2.462267 1.238400 7.056700 19.883600 4.492976 4.321359 -1.243870 6.501318 -4.878328 -40.050227 -18.916368 -19.964512 81.839214 2.100677 -10.001330 19.001300 -1.669800 8.141400 -23.144500 -3.242113 -0.473063 24.062344 -0.418657 -1.609064 -4.381949 1.645131 -0.540107 -10.133028 -4.842288 -3.504439 -14.177585 8.164924 -5.537601 -8.206064 3.247700 -3.207400 -0.041200 3.375480 -4.475275 0.603505 -86.729374 2.682954 42.821578 95.610895 -57.946991 -70.894006 -0.727367 -0.504378 -14.436836 23.785326 -10.080353 -4.408900 -7.125000 0.000000 0.000000 -1.680800 19.347000 1.029500 -4.643091 4.634232 -0.707217 90.796053 -16.973619 24.512786 -32.367101 40.619115 -17.041689 2.313519 0.823677 -14.492192 -26.220434 4.703806 -2.392100 7.125000 0.000000 0.000000 -1.516100 -24.988700 -0.734000 
2.336669 16.572667 35.847444 176.329021 -2.390493 -153.721737 -8.548524 -5.491937 -2.061287 -13.540956 -5.168663 -34.942418 7.019074 16.288157 49.872164 10.012471 -19.399860 -2.715623 1.215800 6.994300 19.698500 4.094346 4.502873 -1.834529 6.271259 -4.468300 -43.359040 -19.617843 -20.183482 84.254752 1.919287 -8.953988 17.485257 -1.766400 8.361400 -23.817400 -2.906806 -0.871701 23.879296 -0.361690 -1.947969 -4.448804 1.940734 -0.721069 -10.184057 -4.899804 -3.461301 -14.551903 8.127612 -5.475313 -8.137090 3.177700 -3.191400 0.101000 3.475237 -4.473132 0.647530 -87.809960 0.251988 43.076184 100.423076 -57.640441 -74.792997 -0.707930 -0.452814 -14.507378 23.773068 -9.933469 -4.357900 -7.125000 0.000000 0.000000 -1.708000 19.453400 1.042100 -4.566698 4.516679 -0.787350 90.544306 -19.025136 23.240113 -30.632341 39.588191 -15.795518 2.390823 0.782760 -13.780820 -26.519791 5.040517 -2.624500 7.125000 0.000000 0.000000 -1.769500 -24.565400 -0.874100 
